<?xml version="1.0" encoding="UTF-8"?>
<svg xmlns="http://www.w3.org/2000/svg" width="180.0mm" height="25.0mm" viewBox="0 0 180.0 25.0">
  <polyline fill="none" stroke="black" stroke-width="0.3mm" stroke-linejoin="round" stroke-linecap="round"
            points="2.000,19.047 2.117,18.978 2.235,18.978 2.352,18.915 2.470,18.562 2.587,18.114 2.704,17.914 2.822,17.638 2.939,17.335 3.057,17.161 3.174,16.791 3.292,16.407 3.409,16.445 3.526,16.377 3.644,16.377 3.761,16.377 3.879,16.325 3.996,16.114 4.113,15.904 4.231,15.692 4.348,15.571 4.466,15.487 4.583,15.281 4.700,15.222 4.818,15.350 4.935,15.499 5.053,15.596 5.170,15.692 5.288,16.019 5.405,16.171 5.522,16.171 5.640,16.402 5.757,16.787 5.875,16.993 5.992,17.135 6.109,17.472 6.227,17.673 6.344,17.951 6.462,18.530 6.579,18.773 6.696,18.353 6.814,17.842 6.931,17.541 7.049,17.404 7.166,17.198 7.284,17.000 7.401,16.727 7.518,16.414 7.636,16.120 7.753,15.919 7.871,16.159 7.988,16.377 8.105,16.615 8.223,16.899 8.340,17.061 8.458,17.292 8.575,17.541 8.692,17.845 8.810,18.190 8.927,18.563 9.045,18.801 9.162,18.967 9.280,19.594 9.397,19.731 9.514,20.270 9.632,20.399 9.749,20.758 9.867,21.095 9.984,21.345 10.101,21.649 10.219,21.785 10.336,21.653 10.454,21.648 10.571,21.374 10.688,21.169 10.806,20.891 10.923,20.709 11.041,20.553 11.158,20.484 11.276,20.416 11.393,20.279 11.510,20.211 11.628,20.211 11.745,20.142 11.863,19.943 11.980,19.776 12.097,19.573 12.215,19.386 12.332,19.110 12.450,18.987 12.567,18.835 12.684,18.773 12.802,18.755 12.919,18.467 13.037,18.195 13.154,18.013 13.272,17.861 13.389,17.814 13.506,17.677 13.624,17.616 13.741,17.744 13.859,17.892 13.976,17.831 14.093,17.609 14.211,17.814 14.328,17.883 14.446,17.842 14.563,17.883 14.680,17.746 14.798,17.746 14.915,17.753 15.033,17.951 15.150,17.933 15.268,17.712 15.385,17.746 15.502,17.762 15.620,17.946 15.737,17.977 15.855,18.137 15.972,18.398 16.089,18.659 16.207,18.841 16.324,18.841 16.442,18.970 16.559,19.087 16.676,19.238 16.794,19.492 16.911,19.702 17.029,19.909 17.146,20.074 17.264,20.211 17.381,20.279 17.498,20.416 17.616,20.484 17.733,20.553 17.851,20.690 17.968,20.732 18.085,21.009 18.203,21.274 18.320,21.648 18.438,21.931 18.555,22.196 18.672,22.346 18.790,22.624 18.907,22.744 19.025,22.675 19.142,22.589 19.260,22.538 19.377,22.401 19.494,22.059 19.612,21.933 19.729,21.785 19.847,21.580 19.964,21.580 20.081,21.372 20.199,21.076 20.316,20.795 20.434,20.347 20.551,20.128 20.668,19.897 20.786,19.457 20.903,19.252 21.021,18.773 21.138,18.608 21.256,18.362 21.373,18.015 21.490,17.600 21.608,17.275 21.725,17.061 21.843,16.856 21.960,16.584 22.077,16.362 22.195,16.046 22.312,15.780 22.430,15.555 22.547,15.593 22.664,15.208 22.782,15.076 22.899,15.008 23.017,14.831 23.134,14.770 23.252,14.749 23.369,14.918 23.486,14.939 23.604,15.123 23.721,15.278 23.839,15.487 23.956,15.692 24.073,15.829 24.191,15.921 24.308,16.294 24.426,16.549 24.543,16.719 24.660,17.098 24.778,17.335 24.895,17.532 25.013,17.977 25.130,18.294 25.247,18.294 25.365,18.325 25.482,18.362 25.600,18.362 25.717,18.362 25.835,18.362 25.952,18.362 26.069,18.362 26.187,18.362 26.304,18.337 26.422,18.294 26.539,18.294 26.656,18.346 26.774,18.294 26.891,18.415 27.009,18.362 27.126,18.408 27.243,18.441 27.361,18.456 27.478,18.431 27.596,18.431 27.713,18.431 27.831,18.499 27.948,18.431 28.065,18.431 28.183,18.431 28.300,18.431 28.418,18.462 28.535,18.499 28.652,18.499 28.770,18.499 28.887,18.436 29.005,18.431 29.122,18.431 29.239,18.455 29.357,18.499 29.474,18.499 29.592,18.477 29.709,18.445 29.827,18.493 29.944,18.499 30.061,18.529 30.179,18.567 30.296,18.558 30.414,18.499 30.531,18.512 30.648,18.567 30.766,18.499 30.883,18.362 31.001,18.157 31.118,18.020 31.235,17.946 31.353,17.814 31.470,17.677 31.588,17.677 31.705,17.541 31.823,17.485 31.940,17.402 32.057,17.280 32.175,17.198 32.292,17.100 32.410,16.985 32.527,16.924 32.644,16.856 32.762,16.746 32.879,16.719 32.997,16.651 33.114,16.582 33.231,16.514 33.349,16.445 33.466,16.359 33.584,16.308 33.701,16.308 33.819,16.171 33.936,16.158 34.053,16.097 34.171,15.966 34.288,15.888 34.406,15.692 34.523,15.624 34.640,15.555 34.758,15.614 34.875,15.568 34.993,15.624 35.110,15.692 35.227,15.761 35.345,15.761 35.462,15.722 35.580,15.692 35.697,15.692 35.815,15.624 35.932,15.555 36.049,15.555 36.167,15.618 36.284,15.624 36.402,15.555 36.519,15.555 36.636,15.555 36.754,15.555 36.871,15.555 36.989,15.624 37.106,15.624 37.223,15.624 37.341,15.555 37.458,15.624 37.576,15.555 37.693,15.601 37.811,15.905 37.928,16.086 38.045,16.279 38.163,16.445 38.280,16.582 38.398,16.695 38.515,16.822 38.632,17.144 38.750,17.525 38.867,17.906 38.985,18.249 39.102,18.586 39.219,18.773 39.337,18.909 39.454,19.138 39.572,19.428 39.689,19.761 39.807,19.982 39.924,20.239 40.041,20.560 40.159,20.827 40.276,21.032 40.394,21.169 40.511,21.169 40.628,21.306 40.746,21.374 40.863,21.511 40.981,21.560 41.098,21.609 41.215,21.717 41.333,21.831 41.450,21.967 41.568,22.127 41.685,22.369 41.803,22.538 41.920,22.470 42.037,22.538 42.155,22.538 42.272,22.470 42.390,22.538 42.507,22.538 42.624,22.538 42.742,22.543 42.859,22.559 42.977,22.607 43.094,22.607 43.211,22.663 43.329,22.675 43.446,22.721 43.564,22.675 43.681,22.675 43.799,22.617 43.916,22.675 44.033,22.675 44.151,22.642 44.268,22.617 44.386,22.744 44.503,22.744 44.620,22.675 44.738,22.636 44.855,22.607 44.973,22.607 45.090,22.558 45.207,22.470 45.325,22.401 45.442,22.374 45.560,22.401 45.677,22.470 45.795,22.470 45.912,22.548 46.029,22.607 46.147,22.631 46.264,22.675 46.382,22.675 46.499,22.675 46.616,22.607 46.734,22.644 46.851,22.607 46.969,22.675 47.086,22.686 47.203,22.732 47.321,22.675 47.438,22.620 47.556,22.607 47.673,22.607 47.791,22.675 47.908,22.607 48.025,22.603 48.143,22.365 48.260,22.333 48.378,22.196 48.495,22.264 48.612,22.196 48.730,22.196 48.847,22.127 48.965,22.196 49.082,22.127 49.199,22.007 49.317,21.805 49.434,21.670 49.552,21.511 49.669,21.443 49.787,21.169 49.904,20.973 50.021,20.827 50.139,20.690 50.256,20.553 50.374,20.347 50.491,20.119 50.608,19.868 50.726,19.663 50.843,19.594 50.961,19.389 51.078,19.207 51.195,18.978 51.313,18.744 51.430,18.534 51.548,18.362 51.665,18.264 51.783,17.961 51.900,17.814 52.017,17.631 52.135,17.541 52.252,17.351 52.370,17.198 52.487,16.993 52.604,16.856 52.722,16.635 52.839,16.445 52.957,16.384 53.074,16.103 53.191,15.888 53.309,15.692 53.426,15.595 53.544,15.418 53.661,15.265 53.779,14.997 53.896,14.814 54.013,14.734 54.131,14.469 54.248,14.381 54.366,14.323 54.483,14.181 54.600,14.049 54.718,13.912 54.835,13.775 54.953,13.587 55.070,13.456 55.187,13.219 55.305,12.885 55.422,12.543 55.540,12.173 55.657,11.855 55.775,11.584 55.892,11.374 56.009,11.160 56.127,10.968 56.244,10.568 56.362,10.352 56.479,10.117 56.596,9.925 56.714,9.599 56.831,9.394 56.949,9.325 57.066,9.188 57.183,9.188 57.301,9.158 57.418,9.188 57.536,9.188 57.653,9.314 57.771,9.325 57.888,9.257 58.005,9.189 58.123,9.051 58.240,8.777 58.358,8.504 58.475,8.392 58.592,8.367 58.710,8.161 58.827,7.956 58.945,7.769 59.062,7.614 59.179,7.429 59.297,7.076 59.414,6.825 59.532,6.619 59.649,6.334 59.767,6.313 59.884,6.383 60.001,6.484 60.119,6.587 60.236,6.389 60.354,6.313 60.471,6.313 60.588,6.271 60.706,6.039 60.823,5.902 60.941,5.765 61.058,5.560 61.175,5.423 61.293,5.209 61.410,5.025 61.528,4.738 61.645,4.495 61.763,4.132 61.880,4.054 61.997,3.942 62.115,3.848 62.232,3.841 62.350,3.712 62.467,3.643 62.584,3.519 62.702,3.301 62.819,3.034 62.937,2.958 63.054,2.890 63.171,2.785 63.289,2.616 63.406,2.548 63.524,2.514 63.641,2.411 63.759,2.342 63.876,2.342 63.993,2.342 64.111,2.307 64.228,2.226 64.346,2.137 64.463,2.137 64.580,2.068 64.698,2.000 64.815,2.093 64.933,2.137 65.050,2.241 65.167,2.488 65.285,2.548 65.402,2.548 65.520,2.548 65.637,2.616 65.755,2.685 65.872,2.685 65.989,2.773 66.107,2.954 66.224,3.138 66.342,3.301 66.459,3.369 66.576,3.495 66.694,3.575 66.811,3.780 66.929,3.917 67.046,3.985 67.163,4.122 67.281,4.237 67.398,4.412 67.516,4.533 67.633,4.602 67.751,4.656 67.868,4.738 67.985,4.875 68.103,5.081 68.220,5.273 68.338,5.671 68.455,6.019 68.572,6.176 68.690,6.313 68.807,6.470 68.925,6.614 69.042,6.792 69.159,7.026 69.277,7.198 69.394,7.340 69.512,7.465 69.629,7.656 69.746,7.874 69.864,8.025 69.981,8.230 70.099,8.435 70.216,8.623 70.334,8.962 70.451,9.188 70.568,9.429 70.686,9.518 70.803,9.581 70.921,9.531 71.038,9.464 71.155,9.325 71.273,9.394 71.390,9.394 71.508,9.325 71.625,9.190 71.742,9.051 71.860,9.051 71.977,8.983 72.095,8.789 72.212,8.778 72.330,8.778 72.447,8.846 72.564,8.915 72.682,8.983 72.799,9.003 72.917,9.188 73.034,9.257 73.151,9.394 73.269,9.456 73.386,9.394 73.504,9.531 73.621,9.668 73.738,9.734 73.856,9.911 73.973,10.010 74.091,10.010 74.208,9.941 74.326,9.873 74.443,9.873 74.560,9.801 74.678,9.668 74.795,9.668 74.913,9.767 75.030,9.829 75.147,9.941 75.265,10.078 75.382,10.215 75.500,10.227 75.617,10.147 75.734,10.147 75.852,10.147 75.969,10.147 76.087,10.147 76.204,10.010 76.322,10.010 76.439,10.010 76.556,10.010 76.674,10.008 76.791,10.010 76.909,10.078 77.026,10.147 77.143,10.147 77.261,10.147 77.378,10.147 77.496,10.147 77.613,10.284 77.730,10.303 77.848,10.352 77.965,10.453 78.083,10.688 78.200,10.853 78.318,11.017 78.435,11.091 78.552,11.206 78.670,11.379 78.787,11.488 78.905,11.584 79.022,11.653 79.139,11.752 79.257,11.887 79.374,12.064 79.492,12.103 79.609,12.132 79.726,12.201 79.844,12.406 79.961,12.474 80.079,12.611 80.196,12.902 80.314,13.105 80.431,13.344 80.548,13.501 80.666,13.660 80.783,13.775 80.901,13.912 81.018,13.981 81.135,14.118 81.253,14.037 81.370,13.854 81.488,13.638 81.605,13.501 81.722,13.285 81.840,13.090 81.957,12.954 82.075,12.885 82.192,12.885 82.310,12.885 82.427,12.954 82.544,13.022 82.662,13.150 82.779,13.296 82.897,13.433 83.014,13.570 83.131,13.777 83.249,13.981 83.366,14.156 83.484,14.391 83.601,14.578 83.718,14.751 83.836,14.965 83.953,15.213 84.071,15.336 84.188,15.578 84.306,15.761 84.423,16.021 84.540,16.095 84.658,16.346 84.775,16.514 84.893,16.719 85.010,16.913 85.127,16.993 85.245,17.130 85.362,17.198 85.480,17.469 85.597,17.746 85.714,17.951 85.832,18.184 85.949,18.423 86.067,18.567 86.184,18.746 86.302,18.978 86.419,19.177 86.536,19.446 86.654,19.651 86.771,19.866 86.889,20.005 87.006,20.108 87.123,20.227 87.241,20.447 87.358,20.597 87.476,20.811 87.593,21.021 87.710,21.199 87.828,21.479 87.945,21.655 88.063,21.864 88.180,21.991 88.298,21.991 88.415,21.991 88.532,21.991 88.650,21.991 88.767,22.059 88.885,22.059 89.002,21.991 89.119,22.059 89.237,22.127 89.354,22.222 89.472,22.288 89.589,22.438 89.706,22.587 89.824,22.607 89.941,22.607 90.059,22.607 90.176,22.675 90.294,22.675 90.411,22.675 90.528,22.675 90.646,22.675 90.763,22.675 90.881,22.744 90.998,22.747 91.115,22.812 91.233,22.812 91.350,22.874 91.468,22.880 91.585,22.880 91.702,22.880 91.820,22.880 91.937,22.880 92.055,22.880 92.172,22.880 92.290,22.880 92.407,22.880 92.524,22.880 92.642,22.880 92.759,22.853 92.877,22.812 92.994,22.812 93.111,22.746 93.229,22.744 93.346,22.744 93.464,22.689 93.581,22.744 93.698,22.744 93.816,22.744 93.933,22.748 94.051,22.812 94.168,22.824 94.286,22.880 94.403,22.880 94.520,22.880 94.638,22.812 94.755,22.812 94.873,22.777 94.990,22.744 95.107,22.812 95.225,22.922 95.342,22.949 95.460,22.949 95.577,22.880 95.694,22.812 95.812,22.812 95.929,22.699 96.047,22.744 96.164,22.792 96.282,22.800 96.399,22.744 96.516,22.744 96.634,22.744 96.751,22.812 96.869,22.949 96.986,22.949 97.103,22.949 97.221,22.949 97.338,22.949 97.456,22.949 97.573,22.949 97.690,22.957 97.808,22.949 97.925,22.949 98.043,23.000 98.160,22.949 98.278,22.949 98.395,22.949 98.512,22.949 98.630,22.949 98.747,22.949 98.865,22.949 98.982,22.949 99.099,22.949 99.217,22.949 99.334,22.949 99.452,22.884 99.569,22.538 99.686,22.470 99.804,22.267 99.921,22.259 100.039,21.991 100.156,21.854 100.274,21.648 100.391,21.443 100.508,21.237 100.626,21.111 100.743,21.032 100.861,21.101 100.978,21.032 101.095,20.969 101.213,20.932 101.330,20.895 101.448,20.895 101.565,20.895 101.682,20.964 101.800,20.964 101.917,20.895 102.035,20.820 102.152,20.690 102.270,20.690 102.387,20.690 102.504,20.690 102.622,20.865 102.739,20.964 102.857,20.895 102.974,20.895 103.091,21.028 103.209,21.023 103.326,20.895 103.444,20.797 103.561,20.621 103.678,20.416 103.796,20.279 103.913,20.144 104.031,20.005 104.148,19.937 104.266,19.800 104.383,19.731 104.500,19.731 104.618,19.677 104.735,19.526 104.853,19.321 104.970,19.252 105.087,19.115 105.205,18.978 105.322,18.910 105.440,18.796 105.557,18.704 105.674,18.636 105.792,18.567 105.909,18.499 106.027,18.499 106.144,18.407 106.262,18.292 106.379,18.151 106.496,18.061 106.614,17.992 106.731,17.951 106.849,17.795 106.966,17.609 107.083,17.410 107.201,17.267 107.318,17.124 107.436,16.856 107.553,16.912 107.670,17.130 107.788,17.329 107.905,17.335 108.023,17.404 108.140,17.472 108.258,17.609 108.375,17.795 108.492,18.092 108.610,18.376 108.727,18.614 108.845,18.948 108.962,19.184 109.079,19.493 109.197,19.731 109.314,19.937 109.432,20.107 109.549,20.369 109.666,20.553 109.784,20.758 109.901,20.928 110.019,20.827 110.136,20.690 110.254,20.498 110.371,20.416 110.488,20.347 110.606,20.279 110.723,20.211 110.841,20.211 110.958,20.211 111.075,20.211 111.193,20.327 111.310,20.416 111.428,20.489 111.545,20.758 111.662,20.923 111.780,21.218 111.897,21.443 112.015,21.601 112.132,21.785 112.249,22.122 112.367,22.499 112.484,22.779 112.602,22.880 112.719,22.880 112.837,22.880 112.954,22.880 113.071,22.880 113.189,22.880 113.306,22.812 113.424,22.880 113.541,22.880 113.658,22.812 113.776,22.880 113.893,22.822 114.011,22.812 114.128,22.880 114.245,22.880 114.363,22.880 114.480,22.880 114.598,22.880 114.715,22.812 114.833,22.812 114.950,22.812 115.067,22.812 115.185,22.812 115.302,22.812 115.420,22.812 115.537,22.812 115.654,22.812 115.772,22.812 115.889,22.812 116.007,22.812 116.124,22.812 116.241,22.812 116.359,22.812 116.476,22.812 116.594,22.812 116.711,22.812 116.829,22.744 116.946,22.744 117.063,22.752 117.181,22.812 117.298,22.812 117.416,22.880 117.533,22.949 117.650,22.949 117.768,22.880 117.885,22.880 118.003,22.949 118.120,22.880 118.237,22.812 118.355,22.784 118.472,22.744 118.590,22.744 118.707,22.744 118.825,22.744 118.942,22.744 119.059,22.784 119.177,22.750 119.294,22.812 119.412,22.810 119.529,22.812 119.646,22.812 119.764,22.744 119.881,22.812 119.999,22.812 120.116,22.880 120.233,22.880 120.351,22.812 120.468,22.812 120.586,22.880 120.703,22.880 120.821,22.880 120.938,22.880 121.055,22.880 121.173,22.949 121.290,22.949 121.408,22.744 121.525,22.675 121.642,22.820 121.760,22.862 121.877,22.880 121.995,22.812 122.112,22.812 122.229,22.812 122.347,22.744 122.464,22.744 122.582,22.812 122.699,22.880 122.817,22.812 122.934,22.880 123.051,22.880 123.169,22.812 123.286,22.812 123.404,22.812 123.521,22.880 123.638,22.812 123.756,22.880 123.873,22.880 123.991,22.880 124.108,22.880 124.225,22.880 124.343,22.828 124.460,22.812 124.578,22.809 124.695,22.744 124.813,22.812 124.930,22.812 125.047,22.812 125.165,22.812 125.282,22.744 125.400,22.744 125.517,22.744 125.634,22.723 125.752,22.675 125.869,22.607 125.987,22.605 126.104,22.538 126.221,22.470 126.339,22.538 126.456,22.538 126.574,22.538 126.691,22.538 126.809,22.538 126.926,22.538 127.043,22.538 127.161,22.470 127.278,22.426 127.396,22.300 127.513,22.127 127.630,22.059 127.748,22.059 127.865,22.006 127.983,22.031 128.100,21.991 128.217,21.947 128.335,21.854 128.452,21.785 128.570,21.717 128.687,21.648 128.805,21.648 128.922,21.717 129.039,21.717 129.157,21.717 129.274,21.717 129.392,21.588 129.509,21.443 129.626,21.374 129.744,21.306 129.861,21.228 129.979,21.032 130.096,20.836 130.213,20.690 130.331,20.439 130.448,20.242 130.566,20.142 130.683,20.005 130.801,19.800 130.918,19.663 131.035,19.594 131.153,19.471 131.270,19.339 131.388,19.152 131.505,19.047 131.622,18.910 131.740,18.773 131.857,18.721 131.975,18.636 132.092,18.499 132.209,18.431 132.327,18.362 132.444,18.250 132.562,18.157 132.679,18.020 132.797,17.836 132.914,17.746 133.031,17.609 133.149,17.472 133.266,17.343 133.384,17.198 133.501,16.993 133.618,16.834 133.736,16.719 133.853,16.647 133.971,16.479 134.088,16.429 134.205,16.308 134.323,16.171 134.440,16.034 134.558,15.885 134.675,15.692 134.793,15.440 134.910,15.350 135.027,15.144 135.145,15.076 135.262,14.802 135.380,14.734 135.497,14.548 135.614,14.351 135.732,14.254 135.849,14.093 135.967,13.844 136.084,13.728 136.201,13.570 136.319,13.433 136.436,13.297 136.554,13.158 136.671,13.022 136.789,12.885 136.906,12.817 137.023,12.817 137.141,12.938 137.258,13.022 137.376,13.159 137.493,13.228 137.610,13.365 137.728,13.568 137.845,13.844 137.963,14.011 138.080,14.194 138.197,14.342 138.315,14.510 138.432,14.639 138.550,14.734 138.667,14.802 138.785,14.939 138.902,14.939 139.019,15.188 139.137,15.413 139.254,15.605 139.372,15.824 139.489,16.003 139.606,16.103 139.724,16.118 139.841,16.240 139.959,16.377 140.076,16.519 140.193,16.651 140.311,16.856 140.428,16.960 140.546,17.118 140.663,17.192 140.781,17.130 140.898,17.198 141.015,17.267 141.133,17.335 141.250,17.335 141.368,17.441 141.485,17.609 141.602,17.677 141.720,17.746 141.837,17.857 141.955,17.899 142.072,18.020 142.189,18.020 142.307,18.153 142.424,18.333 142.542,18.433 142.659,18.694 142.777,18.841 142.894,18.978 143.011,18.978 143.129,19.047 143.246,19.047 143.364,19.184 143.481,19.252 143.598,19.321 143.716,19.442 143.833,19.594 143.951,19.715 144.068,19.868 144.185,20.005 144.303,20.140 144.420,20.279 144.538,20.336 144.655,20.454 144.773,20.555 144.890,20.690 145.007,20.758 145.125,20.827 145.242,20.837 145.360,20.964 145.477,21.019 145.594,21.032 145.712,21.101 145.829,21.169 145.947,21.237 146.064,21.292 146.181,21.323 146.299,21.374 146.416,21.443 146.534,21.512 146.651,21.580 146.769,21.648 146.886,21.648 147.003,21.717 147.121,21.717 147.238,21.717 147.356,21.785 147.473,21.739 147.590,21.717 147.708,21.835 147.825,21.854 147.943,21.922 148.060,21.991 148.177,21.991 148.295,22.059 148.412,22.127 148.530,22.196 148.647,22.264 148.765,22.326 148.882,22.333 148.999,22.333 149.117,22.333 149.234,22.291 149.352,22.264 149.469,22.196 149.586,22.196 149.704,22.196 149.821,22.196 149.939,22.196 150.056,22.196 150.173,22.196 150.291,22.264 150.408,22.264 150.526,22.264 150.643,22.401 150.761,22.333 150.878,22.470 150.995,22.538 151.113,22.648 151.230,22.744 151.348,22.744 151.465,22.787 151.582,22.812 151.700,22.812 151.817,22.812 151.935,22.812 152.052,22.880 152.169,22.880 152.287,22.880 152.404,22.880 152.522,22.812 152.639,22.880 152.757,22.880 152.874,22.880 152.991,22.880 153.109,22.880 153.226,22.880 153.344,22.880 153.461,22.880 153.578,22.880 153.696,22.880 153.813,22.880 153.931,22.918 154.048,22.949 154.165,22.949 154.283,22.949 154.400,22.949 154.518,22.880 154.635,22.949 154.753,22.938 154.870,22.880 154.987,22.880 155.105,22.815 155.222,22.812 155.340,22.812 155.457,22.812 155.574,22.880 155.692,22.880 155.809,22.880 155.927,22.880 156.044,22.812 156.161,22.810 156.279,22.744 156.396,22.744 156.514,22.744 156.631,22.812 156.748,22.812 156.866,22.812 156.983,22.744 157.101,22.812 157.218,22.866 157.336,22.880 157.453,22.867 157.570,22.812 157.688,22.812 157.805,22.880 157.923,22.812 158.040,22.880 158.157,22.880 158.275,22.880 158.392,22.880 158.510,22.880 158.627,22.880 158.744,22.879 158.862,22.744 158.979,22.493 159.097,22.455 159.214,22.264 159.332,22.127 159.449,21.985 159.566,21.922 159.684,21.922 159.801,21.854 159.919,21.854 160.036,21.740 160.153,21.648 160.271,21.580 160.388,21.511 160.506,21.443 160.623,21.306 160.740,21.306 160.858,21.306 160.975,21.243 161.093,21.169 161.210,21.148 161.328,21.032 161.445,20.964 161.562,20.852 161.680,20.726 161.797,20.621 161.915,20.484 162.032,20.416 162.149,20.279 162.267,20.142 162.384,20.005 162.502,19.887 162.619,19.800 162.736,19.731 162.854,19.594 162.971,19.457 163.089,19.405 163.206,19.389 163.324,19.321 163.441,19.273 163.558,19.242 163.676,19.153 163.793,19.115 163.911,18.952 164.028,18.841 164.145,18.790 164.263,18.704 164.380,18.636 164.498,18.563 164.615,18.489 164.732,18.369 164.850,18.225 164.967,18.088 165.085,17.951 165.202,17.883 165.320,17.746 165.437,17.618 165.554,17.541 165.672,17.350 165.789,17.267 165.907,17.198 166.024,17.063 166.141,16.993 166.259,16.924 166.376,16.924 166.494,16.856 166.611,16.719 166.728,16.651 166.846,16.544 166.963,16.445 167.081,16.443 167.198,16.308 167.316,16.240 167.433,16.171 167.550,16.103 167.668,16.080 167.785,15.966 167.903,15.966 168.020,15.898 168.137,15.829 168.255,15.761 168.372,15.761 168.490,15.692 168.607,15.624 168.724,15.624 168.842,15.555 168.959,15.555 169.077,15.487 169.194,15.555 169.312,15.550 169.429,15.459 169.546,15.487 169.664,15.615 169.781,15.624 169.899,15.624 170.016,15.539 170.133,15.487 170.251,15.418 170.368,15.281 170.486,15.180 170.603,15.076 170.720,14.939 170.838,14.871 170.955,14.802 171.073,14.725 171.190,14.597 171.308,14.528 171.425,14.460 171.542,14.460 171.660,14.391 171.777,14.323 171.895,14.323 172.012,14.254 172.129,14.323 172.247,14.342 172.364,14.430 172.482,14.528 172.599,14.597 172.716,14.665 172.834,14.665 172.951,14.734 173.069,14.734 173.186,14.734 173.304,14.768 173.421,14.871 173.538,14.802 173.656,14.871 173.773,14.871 173.891,14.871 174.008,14.871 174.125,14.871 174.243,14.871 174.360,14.939 174.478,14.939 174.595,14.871 174.712,14.774 174.830,14.665 174.947,14.665 175.065,14.597 175.182,14.567 175.300,14.528 175.417,14.460 175.534,14.391 175.652,14.378 175.769,14.254 175.887,14.254 176.004,14.186 176.121,14.118 176.239,14.049 176.356,14.049 176.474,14.049 176.591,13.912 176.708,13.844 176.826,13.844 176.943,13.844 177.061,13.775 177.178,13.775 177.296,13.707 177.413,13.707 177.530,13.604 177.648,13.570 177.765,13.570 177.883,13.501 178.000,13.433" />
</svg>
